<svg width="100%" height="100%" viewBox="0 0 19 16" version="1.1" xmlns="http://www.w3.org/2000/svg" xmlns:xlink="http://www.w3.org/1999/xlink" xml:space="preserve" xmlns:serif="http://www.serif.com/" style="fill-rule:evenodd;clip-rule:evenodd;stroke-linejoin:round;stroke-miterlimit:1.41421;"><g><path id="Arrow-Up-Icon" serif:id="Arrow Up Icon" d="M10.248,1.065l0,11.279c0,0 0.024,2.412 0.256,3.045c0.088,0.242 0.458,0.293 0.716,0.288l0.002,0c0.259,0.005 0.519,-0.09 0.716,-0.288l5.81,-5.814c0.385,-0.385 0.385,-1.009 0,-1.394c-0.385,-0.385 -1.009,-0.385 -1.394,0l-4.16,4.163l0,-11.279c0,-0.538 -0.435,-0.974 -0.973,-0.974c-0.537,0 -0.973,0.436 -0.973,0.974c0,0 0,-0.538 0,0" /><path id="Arrow-Up-Icon1" serif:id="Arrow Up Icon" d="M8.003,14.703l0,-11.279c0,0 -0.025,-2.412 -0.256,-3.045c-0.089,-0.242 -0.458,-0.293 -0.717,-0.288l-0.001,0c-0.259,-0.005 -0.519,0.09 -0.717,0.288l-5.809,5.814c-0.385,0.385 -0.385,1.009 0,1.394c0.384,0.385 1.008,0.385 1.393,0l4.16,-4.163l0,11.279c0,0.538 0.436,0.974 0.973,0.974c0.538,0 0.974,-0.436 0.974,-0.974c0,0 0,0.538 0,0" /></g></svg>
