<svg width="100%" height="100%" viewBox="0 0 384 512" style="fill-rule:evenodd;clip-rule:evenodd;stroke-linejoin:round;stroke-miterlimit:2;">
    <path d="M300.8,203.9L290.7,128L328,128C341.2,128 352,117.2 352,104L352,24C352,10.8 341.2,0 328,0L56,0C42.8,0 32,10.8 32,24L32,104C32,117.2 42.8,128 56,128L93.3,128L83.2,203.9C34.9,231.5 0,278.4 0,335.2C0,344 7.2,351.2 16,351.2L176,351.2L176,472C176,472.7 176.1,473.3 176.2,473.9L184.2,505.9C186.2,513.9 197.7,514 199.7,505.9L207.7,473.9C207.9,473.3 207.9,472.6 207.9,472L207.9,351.2L367.9,351.2C376.7,351.2 383.9,344 383.9,335.2C384,278.4 349.1,231.5 300.8,203.9Z" style="fill-rule:nonzero;"/>
</svg>
