<?xml version="1.0" encoding="UTF-8" standalone="no"?>
<!DOCTYPE svg PUBLIC "-//W3C//DTD SVG 1.1//EN" "http://www.w3.org/Graphics/SVG/1.1/DTD/svg11.dtd">
<svg width="100%" height="100%" viewBox="0 0 480 512" version="1.1" xmlns="http://www.w3.org/2000/svg" xmlns:xlink="http://www.w3.org/1999/xlink" xml:space="preserve" xmlns:serif="http://www.serif.com/" style="fill-rule:evenodd;clip-rule:evenodd;stroke-linejoin:round;stroke-miterlimit:2;">
    <path d="M342.91,193.57C335.1,189.77 325.41,193.09 321.57,201.07C317.76,209.04 321.13,218.6 329.1,222.41C343.22,229.2 352,242.06 352,256C352,269.94 343.22,282.8 329.1,289.58C321.13,293.39 317.76,302.96 321.57,310.92C325.43,318.97 335.11,322.21 342.91,318.42C368.25,306.28 384,282.36 384,256C384,229.64 368.25,205.71 342.91,193.57ZM231.81,64C225.9,64 219.89,66.18 215.03,71.05L126.06,160L24,160C10.74,160 0,170.74 0,184L0,328C0,341.25 10.74,352 24,352L126.06,352L215.03,440.95C219.9,445.82 225.91,448 231.81,448C244.14,448 256,438.48 256,423.98L256,88.02C256,73.51 244.13,64 231.81,64ZM480,255.99C480,189.87 445.98,129.37 391.19,98.12C383.5,93.74 373.6,96.34 369.15,104.01C364.7,111.67 367.38,121.45 375.11,125.87C419.88,151.42 447.72,201.27 447.72,255.99C447.72,310.71 419.88,360.57 375.11,386.11C367.39,390.53 364.71,400.31 369.15,407.97C373.45,415.35 383.21,418.41 391.19,413.86C445.98,382.62 480,322.12 480,255.99Z" style="fill-rule:nonzero;"/>
</svg>
