<svg xmlns="http://www.w3.org/2000/svg" xmlns:xlink="http://www.w3.org/1999/xlink" width="100%" height="100%" version="1.1" viewBox="0 0 16 17" xml:space="preserve" style="fill-rule:evenodd;clip-rule:evenodd;stroke-linejoin:round;stroke-miterlimit:1.41421"><path id="Close-Circle-Icon" d="M8,16.678c-4.418,0 -8,-3.581 -8,-8c0,-4.418 3.582,-8 8,-8c4.418,0 8,3.582 8,8c0,4.419 -3.582,8 -8,8Zm2.831,-10.843c-0.388,-0.388 -1.017,-0.388 -1.405,0l-1.432,1.432l-1.433,-1.432c-0.388,-0.388 -1.017,-0.388 -1.405,0c-0.388,0.388 -0.388,1.017 0,1.405l1.433,1.432l-1.433,1.433c-0.388,0.387 -0.388,1.017 0,1.405c0.388,0.388 1.017,0.388 1.405,0l1.433,-1.433l1.432,1.433c0.388,0.388 1.017,0.388 1.405,0c0.388,-0.388 0.388,-1.018 0,-1.405l-1.433,-1.433l1.433,-1.432c0.388,-0.388 0.388,-1.017 0,-1.405Z" style="fill:#374355"/></svg>