<svg xmlns="http://www.w3.org/2000/svg" xmlns:xlink="http://www.w3.org/1999/xlink" width="100%" height="100%" version="1.1" viewBox="0 0 16 16" xml:space="preserve" style="fill-rule:evenodd;clip-rule:evenodd;stroke-linejoin:round;stroke-miterlimit:1.41421"><path id="Info-Circle-Icon" d="M8,0c-4.418,0 -8,3.582 -8,8c0,4.418 3.582,8 8,8c4.418,0 8,-3.582 8,-8c0,-4.418 -3.582,-8 -8,-8Zm1.043,11.478c0,0.576 -0.467,1.044 -1.043,1.044c-0.576,0 -1.044,-0.468 -1.044,-1.044l0,-4.174c0,-0.576 0.468,-1.043 1.044,-1.043c0.576,0 1.043,0.467 1.043,1.043l0,4.174Zm-1.043,-5.913c-0.576,0 -1.044,-0.467 -1.044,-1.043c0,-0.577 0.468,-1.044 1.044,-1.044c0.576,0 1.043,0.467 1.043,1.044c0,0.576 -0.467,1.043 -1.043,1.043Z" style="fill:#3d4d65"/></svg>