<?xml version="1.0" encoding="UTF-8" standalone="no"?><!DOCTYPE svg PUBLIC "-//W3C//DTD SVG 1.1//EN" "http://www.w3.org/Graphics/SVG/1.1/DTD/svg11.dtd"><svg width="100%" height="100%" viewBox="0 0 12 17" version="1.1" xmlns="http://www.w3.org/2000/svg" xmlns:xlink="http://www.w3.org/1999/xlink" xml:space="preserve" xmlns:serif="http://www.serif.com/" style="fill-rule:evenodd;clip-rule:evenodd;stroke-linejoin:round;stroke-miterlimit:1.41421;"><path id="thumb-tack" d="M11.976,10.615c0,0.336 -0.279,0.615 -0.615,0.615l-4.125,0l-0.491,4.645c-0.019,0.153 -0.144,0.278 -0.298,0.278l-0.009,0c-0.154,0 -0.279,-0.106 -0.308,-0.259l-0.731,-4.664l-3.884,0c-0.337,0 -0.616,-0.279 -0.616,-0.615c0,-1.577 1.192,-3.077 2.462,-3.077l0,-4.923c-0.674,0 -1.231,-0.558 -1.231,-1.231c0,-0.673 0.557,-1.231 1.231,-1.231l6.154,0c0.673,0 1.23,0.558 1.23,1.231c0,0.673 -0.557,1.231 -1.23,1.231l0,4.923c1.269,0 2.461,1.5 2.461,3.077Z" style="fill:#374355;fill-rule:nonzero;"/></svg>