<?xml version="1.0" encoding="UTF-8" standalone="no"?><!DOCTYPE svg PUBLIC "-//W3C//DTD SVG 1.1//EN" "http://www.w3.org/Graphics/SVG/1.1/DTD/svg11.dtd"><svg width="100%" height="100%" viewBox="0 0 16 17" version="1.1" xmlns="http://www.w3.org/2000/svg" xmlns:xlink="http://www.w3.org/1999/xlink" xml:space="preserve" xmlns:serif="http://www.serif.com/" style="fill-rule:evenodd;clip-rule:evenodd;stroke-linejoin:round;stroke-miterlimit:1.41421;"><path id="volume-down" d="M10.947,0.995l0,14.316c0,0.461 -0.381,0.842 -0.842,0.842c-0.224,0 -0.434,-0.092 -0.592,-0.25l-4.381,-4.381l-3.448,0c-0.46,0 -0.842,-0.382 -0.842,-0.842l0,-5.053c0,-0.461 0.382,-0.842 0.842,-0.842l3.448,0l4.381,-4.382c0.158,-0.157 0.369,-0.25 0.592,-0.25c0.461,0 0.842,0.382 0.842,0.842Zm5.053,7.158c0,1.316 -0.802,2.592 -2.04,3.092c-0.105,0.054 -0.224,0.066 -0.329,0.066c-0.46,0 -0.842,-0.369 -0.842,-0.842c0,-1 1.527,-0.723 1.527,-2.316c0,-1.592 -1.527,-1.316 -1.527,-2.316c0,-0.473 0.382,-0.842 0.842,-0.842c0.105,0 0.224,0.014 0.329,0.066c1.238,0.487 2.04,1.776 2.04,3.092Z" style="fill:#374355;fill-rule:nonzero;"/></svg>